<svg width="106" height="106" viewBox="0 0 106 106" fill="none" xmlns="http://www.w3.org/2000/svg">
<g filter="url(#filter0_f_603_2423)">
<rect x="3" y="3" width="100" height="100" rx="12" fill="#E2F0F9"/>
</g>
<path d="M73.3125 61.5938H70.9688V42.0625C70.9688 41.0265 70.5572 40.0329 69.8246 39.3004C69.0921 38.5678 68.0985 38.1562 67.0625 38.1562H38.9375C37.9015 38.1562 36.9079 38.5678 36.1754 39.3004C35.4428 40.0329 35.0312 41.0265 35.0312 42.0625V61.5938H32.6875C32.4803 61.5938 32.2816 61.6761 32.1351 61.8226C31.9886 61.9691 31.9062 62.1678 31.9062 62.375V65.5C31.9062 66.536 32.3178 67.5296 33.0504 68.2621C33.7829 68.9947 34.7765 69.4062 35.8125 69.4062H70.1875C71.2235 69.4062 72.2171 68.9947 72.9496 68.2621C73.6822 67.5296 74.0938 66.536 74.0938 65.5V62.375C74.0938 62.1678 74.0114 61.9691 73.8649 61.8226C73.7184 61.6761 73.5197 61.5938 73.3125 61.5938ZM36.5938 42.0625C36.5938 41.4409 36.8407 40.8448 37.2802 40.4052C37.7198 39.9657 38.3159 39.7188 38.9375 39.7188H67.0625C67.6841 39.7188 68.2802 39.9657 68.7198 40.4052C69.1593 40.8448 69.4062 41.4409 69.4062 42.0625V61.5938H36.5938V42.0625ZM72.5312 65.5C72.5312 66.1216 72.2843 66.7177 71.8448 67.1573C71.4052 67.5968 70.8091 67.8438 70.1875 67.8438H35.8125C35.1909 67.8438 34.5948 67.5968 34.1552 67.1573C33.7157 66.7177 33.4688 66.1216 33.4688 65.5V63.1562H72.5312V65.5ZM56.9062 45.1875C56.9062 45.3947 56.8239 45.5934 56.6774 45.7399C56.5309 45.8864 56.3322 45.9688 56.125 45.9688H49.875C49.6678 45.9688 49.4691 45.8864 49.3226 45.7399C49.1761 45.5934 49.0938 45.3947 49.0938 45.1875C49.0938 44.9803 49.1761 44.7816 49.3226 44.6351C49.4691 44.4886 49.6678 44.4062 49.875 44.4062H56.125C56.3322 44.4062 56.5309 44.4886 56.6774 44.6351C56.8239 44.7816 56.9062 44.9803 56.9062 45.1875Z" fill="#DF4C73"/>
<defs>
<filter id="filter0_f_603_2423" x="0" y="0" width="106" height="106" filterUnits="userSpaceOnUse" color-interpolation-filters="sRGB">
<feFlood flood-opacity="0" result="BackgroundImageFix"/>
<feBlend mode="normal" in="SourceGraphic" in2="BackgroundImageFix" result="shape"/>
<feGaussianBlur stdDeviation="1.5" result="effect1_foregroundBlur_603_2423"/>
</filter>
</defs>
</svg>
