<svg width="106" height="106" viewBox="0 0 106 106" fill="none" xmlns="http://www.w3.org/2000/svg">
<g filter="url(#filter0_f_603_2411)">
<rect x="3" y="3" width="100" height="100" rx="12" fill="#E2F0F9"/>
</g>
<path d="M36.3335 65.5V40.5M69.6668 40.5V65.5" stroke="#DF4C73" stroke-width="1.5" stroke-linecap="round"/>
<path d="M53.0002 48.8334C62.2043 48.8334 69.6668 45.1042 69.6668 40.5C69.6668 35.8959 62.2043 32.1667 53.0002 32.1667C43.796 32.1667 36.3335 35.8959 36.3335 40.5C36.3335 45.1042 43.796 48.8334 53.0002 48.8334Z" stroke="#DF4C73" stroke-width="1.5"/>
<path opacity="0.5" d="M69.6668 53C69.6668 57.6042 62.2043 61.3333 53.0002 61.3333C43.796 61.3333 36.3335 57.6042 36.3335 53" stroke="#DF4C73" stroke-width="1.5"/>
<path d="M69.6668 65.5C69.6668 70.1042 62.2043 73.8333 53.0002 73.8333C43.796 73.8333 36.3335 70.1042 36.3335 65.5" stroke="#DF4C73" stroke-width="1.5"/>
<defs>
<filter id="filter0_f_603_2411" x="0" y="0" width="106" height="106" filterUnits="userSpaceOnUse" color-interpolation-filters="sRGB">
<feFlood flood-opacity="0" result="BackgroundImageFix"/>
<feBlend mode="normal" in="SourceGraphic" in2="BackgroundImageFix" result="shape"/>
<feGaussianBlur stdDeviation="1.5" result="effect1_foregroundBlur_603_2411"/>
</filter>
</defs>
</svg>
